<svg width="87" height="77" viewBox="0 0 87 77" fill="none" xmlns="http://www.w3.org/2000/svg">
<path d="M62.147 4.01234L62.15 4.01546C64.6781 6.65333 65.6767 9.51893 65.3313 13.2884M62.147 4.01234L29.6254 1.01953C24.6009 2.61806 21.6668 6.78455 21.6668 12.2894C21.6668 13.4363 21.7516 14.4495 22.05 15.4772C22.3488 16.5061 22.8539 17.5234 23.6643 18.6933C25.2713 21.0131 28.1262 23.9962 33.0867 28.9292C36.9329 32.7673 39.1274 34.9115 40.546 36.0934C41.2562 36.6851 41.7991 37.0592 42.2789 37.2826C42.777 37.5146 43.19 37.5764 43.6189 37.5764C44.0448 37.5764 44.4531 37.5187 44.9436 37.2889C45.415 37.0681 45.9441 36.6968 46.6363 36.108C48.0188 34.932 50.1657 32.7874 53.9635 28.9266C58.8762 23.97 61.6304 21.0989 63.1914 18.9666C63.9784 17.8915 64.4756 16.987 64.7949 16.0817C65.1138 15.1777 65.2465 14.2974 65.3313 13.2884M62.147 4.01234C60.9942 2.83029 59.8227 1.97416 58.4987 1.41709C57.1749 0.860101 55.7266 0.613815 54.0358 0.613815C52.3245 0.613815 50.9206 0.835237 49.5443 1.43106C48.1759 2.02353 46.8683 2.9719 45.3283 4.37319M62.147 4.01234L45.3283 4.37319M65.3313 13.2884C65.3313 13.289 65.3312 13.2897 65.3311 13.2903L64.8332 13.2446L65.3315 13.2865C65.3314 13.2871 65.3314 13.2878 65.3313 13.2884ZM45.3283 4.37319C45.3281 4.37336 45.3279 4.37352 45.3277 4.37369L43.2607 6.24566L41.7447 4.68452C41.7443 4.68409 41.7439 4.68366 41.7435 4.68323C38.2123 0.990736 33.8827 -0.338147 29.6257 1.01942L45.3283 4.37319ZM38.5769 56.4665C39.005 56.3233 42.4298 56.18 46.1399 56.18C52.3234 56.18 53.0845 56.0845 54.2261 55.1771C55.7482 53.9831 55.8433 52.2638 54.4639 50.8787C53.5602 49.9713 53.0845 49.9236 39.1477 50.0668C38.4028 50.0733 37.6937 50.0788 37.018 50.0841H37.018C28.4762 50.151 25.2754 50.176 22.5949 51.3694C20.9885 52.0845 19.5689 53.2193 17.2986 55.034L38.5769 56.4665ZM38.5769 56.4665C37.6732 56.8486 36.4365 59.0933 36.4365 60.4783C36.4365 61.0514 37.0548 62.1499 37.8159 62.914L39.1953 64.299M38.5769 56.4665L39.1953 64.299M39.1953 64.299H59.5059L69.2569 57.1352M39.1953 64.299L60.2194 74.9493M60.2194 74.9493C57.6032 76 57.5081 76 29.3016 76C1.33296 76 1 76 1 75.0448C1 74.0929 1.37797 74.0896 29.256 73.8532L29.5395 73.8508L58.0789 73.612L60.695 72.3226M60.2194 74.9493C63.0257 73.8031 84.0022 58.4724 85.2865 56.6576L60.2194 74.9493ZM60.695 72.3226C62.122 71.5584 67.925 67.4989 73.5378 63.2483M60.695 72.3226L60.459 71.8818C60.4614 71.8805 60.4638 71.8792 60.4662 71.8779M60.695 72.3226L60.474 71.8741L60.4662 71.8779M73.5378 63.2483C82.8131 56.18 83.7644 55.3203 83.9071 53.9353M73.5378 63.2483L73.2347 62.8506M73.5378 63.2483L73.2359 62.8497C73.2355 62.85 73.2351 62.8503 73.2347 62.8506M83.9071 53.9353C84.0022 52.7891 83.7644 52.0727 82.8607 51.1653C80.7202 49.0161 79.8165 49.3982 69.2569 57.1352M83.9071 53.9353L83.4088 53.894C83.409 53.8923 83.4091 53.8907 83.4092 53.8891M83.9071 53.9353L83.4097 53.8841C83.4096 53.8857 83.4094 53.8874 83.4092 53.8891M69.2569 57.1352L69.5529 57.5381L69.5524 57.5385M69.2569 57.1352L69.5524 57.5385M69.5524 57.5385C72.1929 55.6038 74.2226 54.1342 75.8175 53.0496C77.4173 51.9616 78.5549 51.2782 79.4165 50.901C80.2753 50.5249 80.7946 50.4825 81.1893 50.5868C81.5994 50.6952 81.9755 50.9851 82.5064 51.5181C82.9282 51.9416 83.1621 52.2884 83.2893 52.6336C83.4156 52.9764 83.4526 53.3612 83.4092 53.8891M69.5524 57.5385L59.8019 64.702L59.6698 64.799H59.5059H39.1953H38.9876L38.841 64.6519L37.4616 63.2669C37.0475 62.8511 36.6759 62.349 36.4055 61.8706C36.1472 61.4137 35.9365 60.9006 35.9365 60.4783C35.9365 59.6671 36.2877 58.6741 36.7278 57.8588C36.9519 57.4438 37.2102 57.0536 37.4803 56.7359C37.7419 56.4283 38.0497 56.1466 38.3822 56.006L38.4 55.9985L38.4183 55.9924C38.5255 55.9565 38.6728 55.9341 38.811 55.9169C38.9638 55.8979 39.1559 55.8799 39.3794 55.8628C39.8272 55.8285 40.4182 55.7969 41.1081 55.7699C42.4888 55.7159 44.2791 55.68 46.1399 55.68C49.2439 55.68 50.944 55.6552 52.0121 55.5226C52.538 55.4573 52.8856 55.3684 53.1586 55.2549C53.4282 55.1428 53.649 54.997 53.915 54.7856L53.9175 54.7836C54.5899 54.2562 54.9017 53.652 54.9338 53.0719C54.966 52.4908 54.7222 51.8466 54.1096 51.2316C53.911 51.0321 53.7768 50.9185 53.4912 50.8232C53.1694 50.716 52.6467 50.6314 51.666 50.578C49.7126 50.4717 46.131 50.4951 39.1529 50.5668L39.152 50.5668C38.4053 50.5732 37.695 50.5788 37.0186 50.5841C33.9195 50.6084 31.5327 50.6271 29.6174 50.6978C27.2831 50.7841 25.6856 50.947 24.3834 51.2796C22.0562 51.874 20.6309 53.0125 17.5918 55.4401C17.259 55.7059 16.9068 55.9872 16.532 56.285L16.5315 56.2854L12.2506 59.6763L12.1142 59.7843H11.9401H6.47006C3.92806 59.7843 2.50283 59.7744 1.72346 59.6397C1.33796 59.5731 0.981841 59.4582 0.750199 59.1837C0.511863 58.9013 0.5 58.5592 0.5 58.3292C0.5 58.0951 0.519837 57.7706 0.751393 57.4931C0.971806 57.229 1.30798 57.0986 1.68477 57.012C2.44087 56.8383 3.80571 56.754 6.20765 56.6358L6.20944 56.6357L11.2782 56.4044M11.2782 56.4044L14.7657 53.5938L14.7663 53.5933C19.5331 49.7644 21.2663 48.7045 24.4617 47.8649C25.5417 47.5629 26.9442 47.3825 29.407 47.2867C31.8758 47.1907 35.4421 47.1789 40.8639 47.2267L40.8636 47.2267L40.8601 47.7266L40.8645 47.2267L54.6101 47.3222L54.8348 47.3237L54.9828 47.4929L56.3595 49.0658C56.36 49.0663 56.3604 49.0668 56.3609 49.0673C57.4329 50.2725 57.9743 51.6797 57.9546 53.0827C57.9348 54.4875 57.3526 55.8507 56.2451 56.9627L54.7706 58.4432L54.624 58.5904H54.4163H47.1388C43.6476 58.5904 41.8469 58.6034 40.8293 58.7354C40.3269 58.8006 40.0736 58.8889 39.918 58.9824C39.7728 59.0696 39.6712 59.1849 39.5167 59.4176L39.5105 59.4269L39.5039 59.436C39.2697 59.7566 39.1786 59.9858 39.1568 60.1723C39.1359 60.3504 39.1712 60.5484 39.3073 60.8233C39.3695 60.9403 39.4221 61.0031 39.575 61.068C39.7754 61.1531 40.1345 61.2312 40.829 61.2873C42.2067 61.3987 44.6776 61.4111 49.2792 61.4111H59.0558L68.2938 54.5839L68.2939 54.5838C71.1755 52.4557 73.6683 50.6951 75.5628 49.441C76.5094 48.8143 77.3117 48.3108 77.941 47.9502C78.2554 47.7701 78.5319 47.6227 78.7649 47.5126C78.9891 47.4068 79.2038 47.3206 79.385 47.2842L79.3937 47.2825L79.3937 47.2825C80.571 47.0676 81.8812 47.3391 83.0145 47.8922C84.148 48.4453 85.1664 49.3102 85.7271 50.3559L85.7307 50.3625L85.7341 50.3693C86.2495 51.4044 86.5 52.653 86.5 53.8219C86.5 54.9814 86.253 56.1336 85.6987 56.9407L85.6947 56.9464C85.5829 57.1044 85.3928 57.3003 85.1674 57.5131C84.9335 57.7339 84.6335 57.9985 84.2791 58.299C83.5698 58.9004 82.6281 59.6572 81.5303 60.5142C79.3338 62.2289 76.4991 64.3546 73.6186 66.458C70.7381 68.5614 67.8083 70.6451 65.4215 72.2757C64.2284 73.0908 63.1681 73.7946 62.3162 74.3317C61.4773 74.8604 60.8063 75.2497 60.4084 75.4122L60.4057 75.4133C59.7459 75.6783 59.2103 75.8915 58.3403 76.0488C57.4853 76.2033 56.3167 76.3026 54.3738 76.3684C50.4887 76.5 43.4077 76.5 29.3285 76.5H29.3016H29.2723C15.3137 76.5 8.23353 76.5 4.64589 76.3803C2.87065 76.3211 1.88987 76.2322 1.35116 76.0776C1.07899 75.9996 0.821184 75.879 0.658772 75.646C0.499649 75.4178 0.499884 75.1702 0.499994 75.0535L0.5 75.0448L0.499998 75.0389C0.499949 74.9197 0.499846 74.6697 0.664009 74.4391C0.827803 74.209 1.08576 74.0883 1.36007 74.0087C1.90471 73.8506 2.89594 73.7537 4.6895 73.6796C8.28855 73.531 15.3574 73.4711 29.2266 73.3535L29.5353 73.3509L57.9604 73.113L60.4662 71.8779M11.2782 56.4044L11.4417 56.3969L11.4645 56.8964L11.1507 56.5071L11.2782 56.4044ZM60.4662 71.8779C61.1523 71.5089 62.9283 70.3256 65.2588 68.6841C67.5845 67.0459 70.4333 64.9721 73.2347 62.8506M73.2347 62.8506C77.8797 59.3109 80.4166 57.3434 81.813 56.0887C82.5115 55.461 82.8952 55.037 83.1135 54.7057C83.3169 54.3971 83.3805 54.1636 83.4092 53.8891M40.4582 7.67534L40.4614 7.67845L43.1726 10.353L43.5238 10.6994L43.875 10.3529L46.6338 7.63064L46.6346 7.62985C48.4944 5.78636 49.6653 4.78227 50.7636 4.25025C51.8302 3.73362 52.8676 3.64462 54.5238 3.76173L54.5252 3.76183C56.2189 3.87673 57.5682 4.29886 58.6748 5.03961C59.7816 5.78048 60.6813 6.86394 61.4374 8.35888C62.0958 9.6692 62.4996 10.7233 62.6066 11.7339C62.7118 12.7276 62.5335 13.7185 61.9524 14.9052C61.3649 16.105 60.3701 17.4954 58.8487 19.2738C57.3298 21.0492 55.3063 23.1883 52.6789 25.8861C49.4191 29.2308 47.3026 31.3315 45.8793 32.5952C45.1667 33.2279 44.6438 33.6364 44.2491 33.8846C43.8641 34.1266 43.6513 34.1835 43.5389 34.1881C43.5317 34.1862 43.5175 34.182 43.4952 34.1735C43.4437 34.1539 43.3712 34.1196 43.2759 34.0657C43.0852 33.9581 42.8377 33.7921 42.5367 33.568C41.9364 33.1211 41.1621 32.4726 40.269 31.6765C38.485 30.0862 36.2561 27.9333 34.0519 25.6933C31.8479 23.4536 29.6747 21.1331 28.0015 19.2088C27.1644 18.2461 26.4568 17.3876 25.9342 16.6907C25.6727 16.3421 25.4614 16.039 25.3044 15.7869C25.1429 15.5277 25.0555 15.3483 25.0212 15.2413L25.0208 15.2399C22.7125 8.10525 29.447 1.57082 36.1423 4.34258C36.5645 4.53481 37.2731 4.99355 38.0776 5.60681C38.8775 6.21648 39.7397 6.95389 40.4582 7.67534Z" fill="#EEE8DC" stroke="#EEE8DC"/>
</svg>
